<svg xmlns="http://www.w3.org/2000/svg" viewBox="0 0 48 48">
  <path fill="#1877F2" d="M48 24C48 10.745 37.255 0 24 0S0 10.745 0 24c0 11.979 8.776 21.908 20.25 23.708V30.938h-6.094V24h6.094v-5.291c0-6.019 3.584-9.34 9.066-9.34 2.626 0 5.372.469 5.372.469v5.906h-3.026c-2.981 0-3.912 1.85-3.912 3.75V24h6.656l-1.064 6.938H27.75v16.77C39.224 45.908 48 35.979 48 24z"/>
  <path fill="#fff" d="M33.342 30.938L34.406 24H27.75v-4.506c0-1.9.931-3.75 3.912-3.75H34.688V9.838s-2.746-.469-5.372-.469c-5.482 0-9.066 3.321-9.066 9.34V24H14.156v6.938H20.25V47.708A24.155 24.155 0 0024 48a24.155 24.155 0 003.75-.292V30.938h5.592z"/>
</svg>
